%TF.GenerationSoftware,KiCad,Pcbnew,(5.1.7)-1*%
%TF.CreationDate,2021-04-10T14:02:21+01:00*%
%TF.ProjectId,vintagestereo,76696e74-6167-4657-9374-6572656f2e6b,rev?*%
%TF.SameCoordinates,Original*%
%TF.FileFunction,Profile,NP*%
%FSLAX46Y46*%
G04 Gerber Fmt 4.6, Leading zero omitted, Abs format (unit mm)*
G04 Created by KiCad (PCBNEW (5.1.7)-1) date 2021-04-10 14:02:21*
%MOMM*%
%LPD*%
G01*
G04 APERTURE LIST*
%TA.AperFunction,Profile*%
%ADD10C,0.050000*%
%TD*%
%TA.AperFunction,Profile*%
%ADD11C,0.120000*%
%TD*%
G04 APERTURE END LIST*
D10*
X45910000Y-5340000D02*
X119790000Y-5340000D01*
X119790000Y-17820000D02*
X119790000Y-5340000D01*
X45910000Y-17820000D02*
X119790000Y-17820000D01*
X45910000Y-17820000D02*
X45910000Y-5340000D01*
X0Y-46010000D02*
X165000000Y-46000000D01*
X0Y-46010000D02*
G75*
G02*
X-500000Y-45510000I0J500000D01*
G01*
X165500000Y-45500000D02*
G75*
G02*
X165000000Y-46000000I-500000J0D01*
G01*
X165500000Y-45500000D02*
X165500000Y-500000D01*
X-500000Y-45510000D02*
X-500000Y-500000D01*
X165000000Y0D02*
G75*
G02*
X165500000Y-500000I0J-500000D01*
G01*
X-500000Y-500000D02*
G75*
G02*
X0Y0I500000J0D01*
G01*
X0Y0D02*
X165000000Y0D01*
D11*
%TO.C,100s1*%
X106170500Y-43420000D02*
X119520500Y-43420000D01*
X119520500Y-25410000D02*
X119520500Y-43420000D01*
X106170500Y-25410000D02*
X106170500Y-43420000D01*
X106170500Y-25410000D02*
X119520500Y-25410000D01*
X91170500Y-25410000D02*
X104520500Y-25410000D01*
X91170500Y-25410000D02*
X91170500Y-43420000D01*
X104520500Y-25410000D02*
X104520500Y-43420000D01*
X91170500Y-43420000D02*
X104520500Y-43420000D01*
X76170500Y-25410000D02*
X89520500Y-25410000D01*
X76170500Y-25410000D02*
X76170500Y-43420000D01*
X89520500Y-25410000D02*
X89520500Y-43420000D01*
X76170500Y-43420000D02*
X89520500Y-43420000D01*
X61170500Y-43420000D02*
X74520500Y-43420000D01*
X74520500Y-25410000D02*
X74520500Y-43420000D01*
X61170500Y-25410000D02*
X61170500Y-43420000D01*
X61170500Y-25410000D02*
X74520500Y-25410000D01*
%TO.C,RADIO*%
X46170500Y-25410000D02*
X59520500Y-25410000D01*
X46170500Y-25410000D02*
X46170500Y-43420000D01*
X59520500Y-25410000D02*
X59520500Y-43420000D01*
X46170500Y-43420000D02*
X59520500Y-43420000D01*
%TD*%
M02*
