%TF.GenerationSoftware,KiCad,Pcbnew,(5.1.7)-1*%
%TF.CreationDate,2021-04-10T14:02:21+01:00*%
%TF.ProjectId,vintagestereo,76696e74-6167-4657-9374-6572656f2e6b,rev?*%
%TF.SameCoordinates,Original*%
%TF.FileFunction,Legend,Top*%
%TF.FilePolarity,Positive*%
%FSLAX46Y46*%
G04 Gerber Fmt 4.6, Leading zero omitted, Abs format (unit mm)*
G04 Created by KiCad (PCBNEW (5.1.7)-1) date 2021-04-10 14:02:21*
%MOMM*%
%LPD*%
G01*
G04 APERTURE LIST*
%ADD10C,0.750000*%
%ADD11C,1.000000*%
%ADD12C,0.150000*%
G04 APERTURE END LIST*
D10*
X156527812Y-39477142D02*
X157152812Y-42477142D01*
X158527812Y-39477142D01*
X159581383Y-42477142D02*
X159313526Y-42334285D01*
X159188526Y-42191428D01*
X159081383Y-41905714D01*
X159188526Y-41048571D01*
X159367098Y-40762857D01*
X159527812Y-40620000D01*
X159831383Y-40477142D01*
X160259955Y-40477142D01*
X160527812Y-40620000D01*
X160652812Y-40762857D01*
X160759955Y-41048571D01*
X160652812Y-41905714D01*
X160474241Y-42191428D01*
X160313526Y-42334285D01*
X160009955Y-42477142D01*
X159581383Y-42477142D01*
X162295669Y-42477142D02*
X162027812Y-42334285D01*
X161920669Y-42048571D01*
X162242098Y-39477142D01*
X2163526Y-38447142D02*
X3877812Y-38447142D01*
X2645669Y-41447142D02*
X3020669Y-38447142D01*
X6038526Y-39447142D02*
X5788526Y-41447142D01*
X4752812Y-39447142D02*
X4556383Y-41018571D01*
X4663526Y-41304285D01*
X4931383Y-41447142D01*
X5359955Y-41447142D01*
X5663526Y-41304285D01*
X5824241Y-41161428D01*
X7467098Y-39447142D02*
X7217098Y-41447142D01*
X7431383Y-39732857D02*
X7592098Y-39590000D01*
X7895669Y-39447142D01*
X8324241Y-39447142D01*
X8592098Y-39590000D01*
X8699241Y-39875714D01*
X8502812Y-41447142D01*
X11092098Y-41304285D02*
X10788526Y-41447142D01*
X10217098Y-41447142D01*
X9949241Y-41304285D01*
X9842098Y-41018571D01*
X9984955Y-39875714D01*
X10163526Y-39590000D01*
X10467098Y-39447142D01*
X11038526Y-39447142D01*
X11306383Y-39590000D01*
X11413526Y-39875714D01*
X11377812Y-40161428D01*
X9913526Y-40447142D01*
D11*
X779940Y-5559047D02*
X1327559Y-5749523D01*
X2279940Y-5749523D01*
X2684702Y-5559047D01*
X2898988Y-5368571D01*
X3137083Y-4987619D01*
X3184702Y-4606666D01*
X3041845Y-4225714D01*
X2875178Y-4035238D01*
X2518035Y-3844761D01*
X1779940Y-3654285D01*
X1422797Y-3463809D01*
X1256130Y-3273333D01*
X1113273Y-2892380D01*
X1160892Y-2511428D01*
X1398988Y-2130476D01*
X1613273Y-1940000D01*
X2018035Y-1749523D01*
X2970416Y-1749523D01*
X3518035Y-1940000D01*
X7089464Y-5368571D02*
X6875178Y-5559047D01*
X6279940Y-5749523D01*
X5898988Y-5749523D01*
X5351369Y-5559047D01*
X5018035Y-5178095D01*
X4875178Y-4797142D01*
X4779940Y-4035238D01*
X4851369Y-3463809D01*
X5137083Y-2701904D01*
X5375178Y-2320952D01*
X5803750Y-1940000D01*
X6398988Y-1749523D01*
X6779940Y-1749523D01*
X7327559Y-1940000D01*
X7494226Y-2130476D01*
X8756130Y-5749523D02*
X9256130Y-1749523D01*
X10660892Y-5749523D02*
X11160892Y-1749523D01*
X12137083Y-4606666D01*
X13827559Y-1749523D01*
X13327559Y-5749523D01*
X15232321Y-5749523D02*
X15732321Y-1749523D01*
X17065654Y-1749523D02*
X19351369Y-1749523D01*
X17708511Y-5749523D02*
X18208511Y-1749523D01*
X20137083Y-4606666D02*
X22041845Y-4606666D01*
X19613273Y-5749523D02*
X21446607Y-1749523D01*
X22279940Y-5749523D01*
X25898988Y-5749523D02*
X24803750Y-3844761D01*
X23613273Y-5749523D02*
X24113273Y-1749523D01*
X25637083Y-1749523D01*
X25994226Y-1940000D01*
X26160892Y-2130476D01*
X26303750Y-2511428D01*
X26232321Y-3082857D01*
X25994226Y-3463809D01*
X25779940Y-3654285D01*
X25375178Y-3844761D01*
X23851369Y-3844761D01*
X36500000Y-25000000D02*
G75*
G03*
X36500000Y-25000000I-13500000J0D01*
G01*
X156000000Y-25000000D02*
G75*
G03*
X156000000Y-25000000I-13500000J0D01*
G01*
%TO.C,100s1*%
D12*
X110392380Y-50492380D02*
X109820952Y-50492380D01*
X110106666Y-50492380D02*
X110106666Y-49492380D01*
X110011428Y-49635238D01*
X109916190Y-49730476D01*
X109820952Y-49778095D01*
X111011428Y-49492380D02*
X111106666Y-49492380D01*
X111201904Y-49540000D01*
X111249523Y-49587619D01*
X111297142Y-49682857D01*
X111344761Y-49873333D01*
X111344761Y-50111428D01*
X111297142Y-50301904D01*
X111249523Y-50397142D01*
X111201904Y-50444761D01*
X111106666Y-50492380D01*
X111011428Y-50492380D01*
X110916190Y-50444761D01*
X110868571Y-50397142D01*
X110820952Y-50301904D01*
X110773333Y-50111428D01*
X110773333Y-49873333D01*
X110820952Y-49682857D01*
X110868571Y-49587619D01*
X110916190Y-49540000D01*
X111011428Y-49492380D01*
X111963809Y-49492380D02*
X112059047Y-49492380D01*
X112154285Y-49540000D01*
X112201904Y-49587619D01*
X112249523Y-49682857D01*
X112297142Y-49873333D01*
X112297142Y-50111428D01*
X112249523Y-50301904D01*
X112201904Y-50397142D01*
X112154285Y-50444761D01*
X112059047Y-50492380D01*
X111963809Y-50492380D01*
X111868571Y-50444761D01*
X111820952Y-50397142D01*
X111773333Y-50301904D01*
X111725714Y-50111428D01*
X111725714Y-49873333D01*
X111773333Y-49682857D01*
X111820952Y-49587619D01*
X111868571Y-49540000D01*
X111963809Y-49492380D01*
X112678095Y-50444761D02*
X112773333Y-50492380D01*
X112963809Y-50492380D01*
X113059047Y-50444761D01*
X113106666Y-50349523D01*
X113106666Y-50301904D01*
X113059047Y-50206666D01*
X112963809Y-50159047D01*
X112820952Y-50159047D01*
X112725714Y-50111428D01*
X112678095Y-50016190D01*
X112678095Y-49968571D01*
X112725714Y-49873333D01*
X112820952Y-49825714D01*
X112963809Y-49825714D01*
X113059047Y-49873333D01*
X114059047Y-50492380D02*
X113487619Y-50492380D01*
X113773333Y-50492380D02*
X113773333Y-49492380D01*
X113678095Y-49635238D01*
X113582857Y-49730476D01*
X113487619Y-49778095D01*
X111460000Y-45182380D02*
X111460000Y-44182380D01*
X111793333Y-44896666D01*
X112126666Y-44182380D01*
X112126666Y-45182380D01*
X113031428Y-44515714D02*
X113031428Y-45182380D01*
X112602857Y-44515714D02*
X112602857Y-45039523D01*
X112650476Y-45134761D01*
X112745714Y-45182380D01*
X112888571Y-45182380D01*
X112983809Y-45134761D01*
X113031428Y-45087142D01*
X113364761Y-44515714D02*
X113745714Y-44515714D01*
X113507619Y-44182380D02*
X113507619Y-45039523D01*
X113555238Y-45134761D01*
X113650476Y-45182380D01*
X113745714Y-45182380D01*
X114460000Y-45134761D02*
X114364761Y-45182380D01*
X114174285Y-45182380D01*
X114079047Y-45134761D01*
X114031428Y-45039523D01*
X114031428Y-44658571D01*
X114079047Y-44563333D01*
X114174285Y-44515714D01*
X114364761Y-44515714D01*
X114460000Y-44563333D01*
X114507619Y-44658571D01*
X114507619Y-44753809D01*
X114031428Y-44849047D01*
X97032380Y-53222380D02*
X96460952Y-53222380D01*
X96746666Y-53222380D02*
X96746666Y-52222380D01*
X96651428Y-52365238D01*
X96556190Y-52460476D01*
X96460952Y-52508095D01*
X97651428Y-52222380D02*
X97746666Y-52222380D01*
X97841904Y-52270000D01*
X97889523Y-52317619D01*
X97937142Y-52412857D01*
X97984761Y-52603333D01*
X97984761Y-52841428D01*
X97937142Y-53031904D01*
X97889523Y-53127142D01*
X97841904Y-53174761D01*
X97746666Y-53222380D01*
X97651428Y-53222380D01*
X97556190Y-53174761D01*
X97508571Y-53127142D01*
X97460952Y-53031904D01*
X97413333Y-52841428D01*
X97413333Y-52603333D01*
X97460952Y-52412857D01*
X97508571Y-52317619D01*
X97556190Y-52270000D01*
X97651428Y-52222380D01*
X98603809Y-52222380D02*
X98699047Y-52222380D01*
X98794285Y-52270000D01*
X98841904Y-52317619D01*
X98889523Y-52412857D01*
X98937142Y-52603333D01*
X98937142Y-52841428D01*
X98889523Y-53031904D01*
X98841904Y-53127142D01*
X98794285Y-53174761D01*
X98699047Y-53222380D01*
X98603809Y-53222380D01*
X98508571Y-53174761D01*
X98460952Y-53127142D01*
X98413333Y-53031904D01*
X98365714Y-52841428D01*
X98365714Y-52603333D01*
X98413333Y-52412857D01*
X98460952Y-52317619D01*
X98508571Y-52270000D01*
X98603809Y-52222380D01*
X99318095Y-53174761D02*
X99413333Y-53222380D01*
X99603809Y-53222380D01*
X99699047Y-53174761D01*
X99746666Y-53079523D01*
X99746666Y-53031904D01*
X99699047Y-52936666D01*
X99603809Y-52889047D01*
X99460952Y-52889047D01*
X99365714Y-52841428D01*
X99318095Y-52746190D01*
X99318095Y-52698571D01*
X99365714Y-52603333D01*
X99460952Y-52555714D01*
X99603809Y-52555714D01*
X99699047Y-52603333D01*
X100699047Y-53222380D02*
X100127619Y-53222380D01*
X100413333Y-53222380D02*
X100413333Y-52222380D01*
X100318095Y-52365238D01*
X100222857Y-52460476D01*
X100127619Y-52508095D01*
X92171428Y-44102380D02*
X92504761Y-45102380D01*
X92838095Y-44102380D01*
X93695238Y-45102380D02*
X93123809Y-45102380D01*
X93409523Y-45102380D02*
X93409523Y-44102380D01*
X93314285Y-44245238D01*
X93219047Y-44340476D01*
X93123809Y-44388095D01*
X94076190Y-44197619D02*
X94123809Y-44150000D01*
X94219047Y-44102380D01*
X94457142Y-44102380D01*
X94552380Y-44150000D01*
X94600000Y-44197619D01*
X94647619Y-44292857D01*
X94647619Y-44388095D01*
X94600000Y-44530952D01*
X94028571Y-45102380D01*
X94647619Y-45102380D01*
X95790476Y-45054761D02*
X95933333Y-45102380D01*
X96171428Y-45102380D01*
X96266666Y-45054761D01*
X96314285Y-45007142D01*
X96361904Y-44911904D01*
X96361904Y-44816666D01*
X96314285Y-44721428D01*
X96266666Y-44673809D01*
X96171428Y-44626190D01*
X95980952Y-44578571D01*
X95885714Y-44530952D01*
X95838095Y-44483333D01*
X95790476Y-44388095D01*
X95790476Y-44292857D01*
X95838095Y-44197619D01*
X95885714Y-44150000D01*
X95980952Y-44102380D01*
X96219047Y-44102380D01*
X96361904Y-44150000D01*
X96933333Y-45102380D02*
X96838095Y-45054761D01*
X96790476Y-45007142D01*
X96742857Y-44911904D01*
X96742857Y-44626190D01*
X96790476Y-44530952D01*
X96838095Y-44483333D01*
X96933333Y-44435714D01*
X97076190Y-44435714D01*
X97171428Y-44483333D01*
X97219047Y-44530952D01*
X97266666Y-44626190D01*
X97266666Y-44911904D01*
X97219047Y-45007142D01*
X97171428Y-45054761D01*
X97076190Y-45102380D01*
X96933333Y-45102380D01*
X98123809Y-44435714D02*
X98123809Y-45102380D01*
X97695238Y-44435714D02*
X97695238Y-44959523D01*
X97742857Y-45054761D01*
X97838095Y-45102380D01*
X97980952Y-45102380D01*
X98076190Y-45054761D01*
X98123809Y-45007142D01*
X98600000Y-44435714D02*
X98600000Y-45102380D01*
X98600000Y-44530952D02*
X98647619Y-44483333D01*
X98742857Y-44435714D01*
X98885714Y-44435714D01*
X98980952Y-44483333D01*
X99028571Y-44578571D01*
X99028571Y-45102380D01*
X99933333Y-45102380D02*
X99933333Y-44102380D01*
X99933333Y-45054761D02*
X99838095Y-45102380D01*
X99647619Y-45102380D01*
X99552380Y-45054761D01*
X99504761Y-45007142D01*
X99457142Y-44911904D01*
X99457142Y-44626190D01*
X99504761Y-44530952D01*
X99552380Y-44483333D01*
X99647619Y-44435714D01*
X99838095Y-44435714D01*
X99933333Y-44483333D01*
X100266666Y-44102380D02*
X100838095Y-44102380D01*
X100552380Y-45102380D02*
X100552380Y-44102380D01*
X101171428Y-45102380D02*
X101171428Y-44435714D01*
X101171428Y-44626190D02*
X101219047Y-44530952D01*
X101266666Y-44483333D01*
X101361904Y-44435714D01*
X101457142Y-44435714D01*
X102219047Y-45102380D02*
X102219047Y-44578571D01*
X102171428Y-44483333D01*
X102076190Y-44435714D01*
X101885714Y-44435714D01*
X101790476Y-44483333D01*
X102219047Y-45054761D02*
X102123809Y-45102380D01*
X101885714Y-45102380D01*
X101790476Y-45054761D01*
X101742857Y-44959523D01*
X101742857Y-44864285D01*
X101790476Y-44769047D01*
X101885714Y-44721428D01*
X102123809Y-44721428D01*
X102219047Y-44673809D01*
X103123809Y-45054761D02*
X103028571Y-45102380D01*
X102838095Y-45102380D01*
X102742857Y-45054761D01*
X102695238Y-45007142D01*
X102647619Y-44911904D01*
X102647619Y-44626190D01*
X102695238Y-44530952D01*
X102742857Y-44483333D01*
X102838095Y-44435714D01*
X103028571Y-44435714D01*
X103123809Y-44483333D01*
X103552380Y-45102380D02*
X103552380Y-44102380D01*
X103647619Y-44721428D02*
X103933333Y-45102380D01*
X103933333Y-44435714D02*
X103552380Y-44816666D01*
X81222380Y-51072380D02*
X80650952Y-51072380D01*
X80936666Y-51072380D02*
X80936666Y-50072380D01*
X80841428Y-50215238D01*
X80746190Y-50310476D01*
X80650952Y-50358095D01*
X81841428Y-50072380D02*
X81936666Y-50072380D01*
X82031904Y-50120000D01*
X82079523Y-50167619D01*
X82127142Y-50262857D01*
X82174761Y-50453333D01*
X82174761Y-50691428D01*
X82127142Y-50881904D01*
X82079523Y-50977142D01*
X82031904Y-51024761D01*
X81936666Y-51072380D01*
X81841428Y-51072380D01*
X81746190Y-51024761D01*
X81698571Y-50977142D01*
X81650952Y-50881904D01*
X81603333Y-50691428D01*
X81603333Y-50453333D01*
X81650952Y-50262857D01*
X81698571Y-50167619D01*
X81746190Y-50120000D01*
X81841428Y-50072380D01*
X82793809Y-50072380D02*
X82889047Y-50072380D01*
X82984285Y-50120000D01*
X83031904Y-50167619D01*
X83079523Y-50262857D01*
X83127142Y-50453333D01*
X83127142Y-50691428D01*
X83079523Y-50881904D01*
X83031904Y-50977142D01*
X82984285Y-51024761D01*
X82889047Y-51072380D01*
X82793809Y-51072380D01*
X82698571Y-51024761D01*
X82650952Y-50977142D01*
X82603333Y-50881904D01*
X82555714Y-50691428D01*
X82555714Y-50453333D01*
X82603333Y-50262857D01*
X82650952Y-50167619D01*
X82698571Y-50120000D01*
X82793809Y-50072380D01*
X83508095Y-51024761D02*
X83603333Y-51072380D01*
X83793809Y-51072380D01*
X83889047Y-51024761D01*
X83936666Y-50929523D01*
X83936666Y-50881904D01*
X83889047Y-50786666D01*
X83793809Y-50739047D01*
X83650952Y-50739047D01*
X83555714Y-50691428D01*
X83508095Y-50596190D01*
X83508095Y-50548571D01*
X83555714Y-50453333D01*
X83650952Y-50405714D01*
X83793809Y-50405714D01*
X83889047Y-50453333D01*
X84889047Y-51072380D02*
X84317619Y-51072380D01*
X84603333Y-51072380D02*
X84603333Y-50072380D01*
X84508095Y-50215238D01*
X84412857Y-50310476D01*
X84317619Y-50358095D01*
X81731904Y-44886666D02*
X82208095Y-44886666D01*
X81636666Y-45172380D02*
X81970000Y-44172380D01*
X82303333Y-45172380D01*
X82636666Y-44172380D02*
X82636666Y-44981904D01*
X82684285Y-45077142D01*
X82731904Y-45124761D01*
X82827142Y-45172380D01*
X83017619Y-45172380D01*
X83112857Y-45124761D01*
X83160476Y-45077142D01*
X83208095Y-44981904D01*
X83208095Y-44172380D01*
X83589047Y-44172380D02*
X84255714Y-45172380D01*
X84255714Y-44172380D02*
X83589047Y-45172380D01*
X67932380Y-51942380D02*
X67360952Y-51942380D01*
X67646666Y-51942380D02*
X67646666Y-50942380D01*
X67551428Y-51085238D01*
X67456190Y-51180476D01*
X67360952Y-51228095D01*
X68551428Y-50942380D02*
X68646666Y-50942380D01*
X68741904Y-50990000D01*
X68789523Y-51037619D01*
X68837142Y-51132857D01*
X68884761Y-51323333D01*
X68884761Y-51561428D01*
X68837142Y-51751904D01*
X68789523Y-51847142D01*
X68741904Y-51894761D01*
X68646666Y-51942380D01*
X68551428Y-51942380D01*
X68456190Y-51894761D01*
X68408571Y-51847142D01*
X68360952Y-51751904D01*
X68313333Y-51561428D01*
X68313333Y-51323333D01*
X68360952Y-51132857D01*
X68408571Y-51037619D01*
X68456190Y-50990000D01*
X68551428Y-50942380D01*
X69503809Y-50942380D02*
X69599047Y-50942380D01*
X69694285Y-50990000D01*
X69741904Y-51037619D01*
X69789523Y-51132857D01*
X69837142Y-51323333D01*
X69837142Y-51561428D01*
X69789523Y-51751904D01*
X69741904Y-51847142D01*
X69694285Y-51894761D01*
X69599047Y-51942380D01*
X69503809Y-51942380D01*
X69408571Y-51894761D01*
X69360952Y-51847142D01*
X69313333Y-51751904D01*
X69265714Y-51561428D01*
X69265714Y-51323333D01*
X69313333Y-51132857D01*
X69360952Y-51037619D01*
X69408571Y-50990000D01*
X69503809Y-50942380D01*
X70218095Y-51894761D02*
X70313333Y-51942380D01*
X70503809Y-51942380D01*
X70599047Y-51894761D01*
X70646666Y-51799523D01*
X70646666Y-51751904D01*
X70599047Y-51656666D01*
X70503809Y-51609047D01*
X70360952Y-51609047D01*
X70265714Y-51561428D01*
X70218095Y-51466190D01*
X70218095Y-51418571D01*
X70265714Y-51323333D01*
X70360952Y-51275714D01*
X70503809Y-51275714D01*
X70599047Y-51323333D01*
X71599047Y-51942380D02*
X71027619Y-51942380D01*
X71313333Y-51942380D02*
X71313333Y-50942380D01*
X71218095Y-51085238D01*
X71122857Y-51180476D01*
X71027619Y-51228095D01*
X64329523Y-44618571D02*
X64472380Y-44666190D01*
X64520000Y-44713809D01*
X64567619Y-44809047D01*
X64567619Y-44951904D01*
X64520000Y-45047142D01*
X64472380Y-45094761D01*
X64377142Y-45142380D01*
X63996190Y-45142380D01*
X63996190Y-44142380D01*
X64329523Y-44142380D01*
X64424761Y-44190000D01*
X64472380Y-44237619D01*
X64520000Y-44332857D01*
X64520000Y-44428095D01*
X64472380Y-44523333D01*
X64424761Y-44570952D01*
X64329523Y-44618571D01*
X63996190Y-44618571D01*
X65472380Y-45142380D02*
X64996190Y-45142380D01*
X64996190Y-44142380D01*
X65805714Y-44142380D02*
X65805714Y-44951904D01*
X65853333Y-45047142D01*
X65900952Y-45094761D01*
X65996190Y-45142380D01*
X66186666Y-45142380D01*
X66281904Y-45094761D01*
X66329523Y-45047142D01*
X66377142Y-44951904D01*
X66377142Y-44142380D01*
X66710476Y-44142380D02*
X67281904Y-44142380D01*
X66996190Y-45142380D02*
X66996190Y-44142380D01*
X67805714Y-44142380D02*
X67996190Y-44142380D01*
X68091428Y-44190000D01*
X68186666Y-44285238D01*
X68234285Y-44475714D01*
X68234285Y-44809047D01*
X68186666Y-44999523D01*
X68091428Y-45094761D01*
X67996190Y-45142380D01*
X67805714Y-45142380D01*
X67710476Y-45094761D01*
X67615238Y-44999523D01*
X67567619Y-44809047D01*
X67567619Y-44475714D01*
X67615238Y-44285238D01*
X67710476Y-44190000D01*
X67805714Y-44142380D01*
X68853333Y-44142380D02*
X69043809Y-44142380D01*
X69139047Y-44190000D01*
X69234285Y-44285238D01*
X69281904Y-44475714D01*
X69281904Y-44809047D01*
X69234285Y-44999523D01*
X69139047Y-45094761D01*
X69043809Y-45142380D01*
X68853333Y-45142380D01*
X68758095Y-45094761D01*
X68662857Y-44999523D01*
X68615238Y-44809047D01*
X68615238Y-44475714D01*
X68662857Y-44285238D01*
X68758095Y-44190000D01*
X68853333Y-44142380D01*
X69567619Y-44142380D02*
X70139047Y-44142380D01*
X69853333Y-45142380D02*
X69853333Y-44142380D01*
X70472380Y-45142380D02*
X70472380Y-44142380D01*
X70472380Y-44618571D02*
X71043809Y-44618571D01*
X71043809Y-45142380D02*
X71043809Y-44142380D01*
%TO.C,RADIO*%
X51359047Y-45032380D02*
X51025714Y-44556190D01*
X50787619Y-45032380D02*
X50787619Y-44032380D01*
X51168571Y-44032380D01*
X51263809Y-44080000D01*
X51311428Y-44127619D01*
X51359047Y-44222857D01*
X51359047Y-44365714D01*
X51311428Y-44460952D01*
X51263809Y-44508571D01*
X51168571Y-44556190D01*
X50787619Y-44556190D01*
X51740000Y-44746666D02*
X52216190Y-44746666D01*
X51644761Y-45032380D02*
X51978095Y-44032380D01*
X52311428Y-45032380D01*
X52644761Y-45032380D02*
X52644761Y-44032380D01*
X52882857Y-44032380D01*
X53025714Y-44080000D01*
X53120952Y-44175238D01*
X53168571Y-44270476D01*
X53216190Y-44460952D01*
X53216190Y-44603809D01*
X53168571Y-44794285D01*
X53120952Y-44889523D01*
X53025714Y-44984761D01*
X52882857Y-45032380D01*
X52644761Y-45032380D01*
X53644761Y-45032380D02*
X53644761Y-44032380D01*
X54311428Y-44032380D02*
X54501904Y-44032380D01*
X54597142Y-44080000D01*
X54692380Y-44175238D01*
X54739999Y-44365714D01*
X54739999Y-44699047D01*
X54692380Y-44889523D01*
X54597142Y-44984761D01*
X54501904Y-45032380D01*
X54311428Y-45032380D01*
X54216190Y-44984761D01*
X54120952Y-44889523D01*
X54073333Y-44699047D01*
X54073333Y-44365714D01*
X54120952Y-44175238D01*
X54216190Y-44080000D01*
X54311428Y-44032380D01*
X47648095Y-52272380D02*
X47648095Y-51272380D01*
X48029047Y-51272380D01*
X48124285Y-51320000D01*
X48171904Y-51367619D01*
X48219523Y-51462857D01*
X48219523Y-51605714D01*
X48171904Y-51700952D01*
X48124285Y-51748571D01*
X48029047Y-51796190D01*
X47648095Y-51796190D01*
X48981428Y-51748571D02*
X49124285Y-51796190D01*
X49171904Y-51843809D01*
X49219523Y-51939047D01*
X49219523Y-52081904D01*
X49171904Y-52177142D01*
X49124285Y-52224761D01*
X49029047Y-52272380D01*
X48648095Y-52272380D01*
X48648095Y-51272380D01*
X48981428Y-51272380D01*
X49076666Y-51320000D01*
X49124285Y-51367619D01*
X49171904Y-51462857D01*
X49171904Y-51558095D01*
X49124285Y-51653333D01*
X49076666Y-51700952D01*
X48981428Y-51748571D01*
X48648095Y-51748571D01*
X49648095Y-51891428D02*
X50410000Y-51891428D01*
X51029047Y-51700952D02*
X50933809Y-51653333D01*
X50886190Y-51605714D01*
X50838571Y-51510476D01*
X50838571Y-51462857D01*
X50886190Y-51367619D01*
X50933809Y-51320000D01*
X51029047Y-51272380D01*
X51219523Y-51272380D01*
X51314761Y-51320000D01*
X51362380Y-51367619D01*
X51410000Y-51462857D01*
X51410000Y-51510476D01*
X51362380Y-51605714D01*
X51314761Y-51653333D01*
X51219523Y-51700952D01*
X51029047Y-51700952D01*
X50933809Y-51748571D01*
X50886190Y-51796190D01*
X50838571Y-51891428D01*
X50838571Y-52081904D01*
X50886190Y-52177142D01*
X50933809Y-52224761D01*
X51029047Y-52272380D01*
X51219523Y-52272380D01*
X51314761Y-52224761D01*
X51362380Y-52177142D01*
X51410000Y-52081904D01*
X51410000Y-51891428D01*
X51362380Y-51796190D01*
X51314761Y-51748571D01*
X51219523Y-51700952D01*
X52267142Y-51272380D02*
X52076666Y-51272380D01*
X51981428Y-51320000D01*
X51933809Y-51367619D01*
X51838571Y-51510476D01*
X51790952Y-51700952D01*
X51790952Y-52081904D01*
X51838571Y-52177142D01*
X51886190Y-52224761D01*
X51981428Y-52272380D01*
X52171904Y-52272380D01*
X52267142Y-52224761D01*
X52314761Y-52177142D01*
X52362380Y-52081904D01*
X52362380Y-51843809D01*
X52314761Y-51748571D01*
X52267142Y-51700952D01*
X52171904Y-51653333D01*
X51981428Y-51653333D01*
X51886190Y-51700952D01*
X51838571Y-51748571D01*
X51790952Y-51843809D01*
X52743333Y-51986666D02*
X53219523Y-51986666D01*
X52648095Y-52272380D02*
X52981428Y-51272380D01*
X53314761Y-52272380D01*
%TD*%
M02*
